<?xml version="1.0" encoding="utf-8"?>
<!-- Generator: Adobe Illustrator 16.0.0, SVG Export Plug-In . SVG Version: 6.00 Build 0)  -->
<!DOCTYPE svg PUBLIC "-//W3C//DTD SVG 1.1//EN" "http://www.w3.org/Graphics/SVG/1.1/DTD/svg11.dtd">
<svg version="1.1" id="Capa_1" xmlns="http://www.w3.org/2000/svg" xmlns:xlink="http://www.w3.org/1999/xlink" x="0px" y="0px"
	 width="1200px" height="1200px" viewBox="0 0 1200 1200" enable-background="new 0 0 1200 1200" xml:space="preserve">
<g>
	<g>
		<g>
			<path d="M210.598,1055.3c-1.358,1.103-2.395,2.08-3.116,2.926c-0.72,0.846-1.275,1.973-1.656,3.371
				c-0.381,1.4-0.613,3.248-0.696,5.536c-0.087,2.294-0.128,5.394-0.128,9.287v32.196h-2.034c-0.767-3.812-2.254-6.189-4.458-7.126
				c-1.271-0.505-2.718-0.761-4.325-0.761c-1.192,0-2.502,0.133-3.943,0.381c-3.396,0.762-7.319,1.931-11.773,3.505
				c-4.457,1.564-9.271,2.898-14.445,4.001c-7.212,0-13.873-1.375-19.979-4.134c-6.106-2.751-11.393-6.504-15.842-11.259
				c-4.457-4.748-7.953-10.374-10.502-16.862c-2.547-6.495-3.814-13.513-3.814-21.062c0-6.959,1.098-13.553,3.306-19.793
				c2.204-6.23,5.303-11.856,9.288-16.859c3.989-5.004,8.782-9.313,14.383-12.918c5.601-3.603,11.79-6.254,18.58-7.953
				c2.97,1.103,6.151,2.097,9.544,2.991c3.393,0.887,6.832,1.508,10.312,1.847c1.864,0.25,3.77,0.383,5.726,0.383
				c1.523,0,3.053-0.084,4.581-0.258c3.389-0.258,6.657-1.062,9.797-2.419l0.767,1.275c-1.955,1.699-3.845,3.24-5.666,4.641
				c-1.824,1.399-3.733,2.608-5.726,3.629c-1.997,1.019-4.135,1.806-6.43,2.353c-2.287,0.556-4.83,0.829-7.631,0.829
				c-4.329,0-8.318-0.614-11.964-1.848c-3.649-1.227-7.639-2.818-11.964-4.773c-4.499,1.533-8.376,3.695-11.645,6.496
				s-5.962,6.039-8.083,9.735c-2.121,3.688-3.687,7.738-4.706,12.154c-1.019,4.407-1.528,9.03-1.528,13.87
				c0,7.208,1.189,13.91,3.567,20.107c2.369,6.189,5.699,11.583,9.987,16.165c4.283,4.572,9.354,8.16,15.207,10.745
				c5.854,2.594,12.3,3.887,19.347,3.887c4.917-0.938,8.819-1.956,11.707-3.058c2.884-1.103,5.025-2.42,6.425-3.943
				c1.4-1.525,2.291-3.413,2.673-5.658c0.38-2.255,0.571-4.988,0.571-8.213v-2.294c0-4.151-0.299-7.398-0.887-9.735
				c-0.596-2.327-1.657-4.067-3.182-5.211c-1.532-1.152-3.546-1.89-6.048-2.229c-2.503-0.339-5.663-0.638-9.479-0.896l0.253-2.028
				h14.76c3.058,0,5.602-0.025,7.639-0.066c2.034-0.041,3.795-0.149,5.278-0.323c1.482-0.166,2.759-0.398,3.819-0.697
				c1.061-0.296,2.183-0.703,3.372-1.209L210.598,1055.3z"/>
			<path d="M265.064,1075.915l-2.038,3.562h-37.922c0.253,2.544,0.891,4.988,1.906,7.317c1.019,2.335,2.378,4.457,4.076,6.363
				c1.693,1.913,3.687,3.521,5.981,4.838c2.287,1.316,4.835,2.187,7.631,2.609c4.076-1.019,7.15-2.676,9.229-4.963
				c2.08-2.295,3.753-4.962,5.029-8.021l1.525,0.515c-1.103,3.389-2.312,6.23-3.63,8.524c-1.317,2.288-2.842,4.202-4.582,5.726
				c-1.739,1.525-3.711,2.758-5.915,3.687c-2.208,0.937-4.706,1.781-7.506,2.544c-3.48-0.34-6.579-1.293-9.292-2.857
				c-2.714-1.566-5.025-3.521-6.936-5.858c-1.909-2.329-3.376-4.963-4.391-7.889c-1.02-2.924-1.529-5.998-1.529-9.229
				c0-4.151,0.597-7.904,1.782-11.259c1.188-3.348,2.866-6.297,5.028-8.841c2.163-2.552,4.727-4.674,7.697-6.363
				c2.971-1.699,6.193-2.883,9.673-3.571c4.329,0.431,8.272,1.641,11.836,3.628c3.562,1.997,6.321,4.865,8.272,8.593
				c-0.509,0.763-1.188,1.615-2.034,2.544c-0.853,0.937-1.723,1.847-2.61,2.734c-0.895,0.894-1.739,1.723-2.547,2.485
				c-0.809,0.763-1.463,1.316-1.972,1.656h12.726L265.064,1075.915z M251.319,1068.789c-1.189-2.038-3.053-4.052-5.601-6.049
				c-2.544-1.987-5.851-3.197-9.926-3.628c-3.306,0.936-5.899,2.701-7.764,5.286s-2.925,5.916-3.181,9.991h21.889
				c0.763-0.771,1.591-1.656,2.481-2.676S250.81,1069.726,251.319,1068.789z"/>
			<path d="M320.037,1067.514c-3.224,6.279-7.975,9.42-14.251,9.42c-3.736,0-6.831-1.292-9.292-3.886
				c-2.46-2.585-4.196-6.123-5.216-10.622c-2.295,2.544-4.097,5.519-5.41,8.907c-1.317,3.396-1.971,7.207-1.971,11.45v14.765
				c0,1.523,0.252,2.758,0.762,3.694c0.256,0.589,0.762,0.886,1.528,0.886c0.593,0,1.354-0.164,2.291-0.505l0.505,1.525
				l-14.25,5.468l-1.019-0.506v-42.636c0-2.112-0.382-3.96-1.145-5.534c-0.762-1.566-2.588-2.609-5.472-3.115v-1.525
				c2.97,0,5.704-0.107,8.206-0.321c2.503-0.209,4.773-0.954,6.811-2.229l1.782,1.533v11.707c1.018-1.698,2.054-3.224,3.115-4.582
				c1.06-1.359,2.228-2.627,3.5-3.819v-1.524l7.892-3.82l2.291,1.021c0,6.279,0.932,10.811,2.796,13.612
				c1.868,2.799,4.159,4.199,6.877,4.199c1.946,0,3.538-0.505,4.772-1.523c1.226-1.02,2.179-2.122,2.862-3.307L320.037,1067.514z"/>
			<path d="M370.941,1103.148l-14.251,5.468l-1.019-0.506v-12.088c-1.956,2.462-4.072,4.748-6.363,6.868
				c-2.291,2.121-4.921,4.036-7.892,5.726c-2.714,0-5.323-0.381-7.825-1.144s-4.706-1.888-6.62-3.372
				c-1.905-1.482-3.455-3.305-4.645-5.468c-1.188-2.163-1.78-4.648-1.78-7.448c0-3.141,0.68-5.891,2.034-8.269
				c1.357-2.378,3.164-4.351,5.409-5.917c2.245-1.574,4.814-2.742,7.701-3.503c2.884-0.763,5.896-1.145,9.035-1.145l10.688,2.038
				c-0.679-3.736-1.993-6.917-3.944-9.545c-1.951-2.634-4.705-4.539-8.269-5.732c-1.445,0-2.929,0.149-4.457,0.448
				c-1.524,0.297-2.925,0.827-4.2,1.59c-0.763,0.937-1.144,1.913-1.144,2.924l0.124,0.133c0,1.021,0.257,2.122,0.767,3.307
				l-6.616,5.095h-1.019c-0.51-1.533-0.763-3.223-0.763-5.095c0-2.544,0.634-4.624,1.905-6.23c1.276-1.615,2.971-2.95,5.092-4.011
				c2.117-1.06,4.582-1.914,7.382-2.544c2.797-0.638,5.726-1.291,8.778-1.979c4.582,1.275,8.169,3.464,10.754,6.554
				c2.59,3.099,4.603,6.687,6.049,10.755v27.49c0,1.523,0.253,2.758,0.762,3.694c0.253,0.589,0.762,0.886,1.524,0.886
				c0.598,0,1.359-0.164,2.295-0.505L370.941,1103.148z M355.672,1089.146v-8.649l-16.036-3.059c-3.815,0-6.641,0.681-8.464,2.038
				c-1.822,1.36-2.734,3.563-2.734,6.621c0,2.46,0.531,4.582,1.591,6.362c1.062,1.781,2.42,3.239,4.072,4.392
				c1.653,1.144,3.477,2.013,5.473,2.61c1.993,0.587,3.965,0.969,5.916,1.143c2.038-1.533,3.927-3.264,5.667-5.22
				C352.892,1093.438,354.396,1091.358,355.672,1089.146z"/>
			<path d="M426.933,1067.514c-3.223,6.279-7.974,9.42-14.25,9.42c-3.737,0-6.831-1.292-9.292-3.886
				c-2.461-2.585-4.196-6.123-5.216-10.622c-2.295,2.544-4.097,5.519-5.41,8.907c-1.317,3.396-1.973,7.207-1.973,11.45v14.765
				c0,1.523,0.254,2.758,0.763,3.694c0.258,0.589,0.763,0.886,1.528,0.886c0.594,0,1.355-0.164,2.291-0.505l0.506,1.525
				l-14.251,5.468l-1.02-0.506v-42.636c0-2.112-0.38-3.96-1.143-5.534c-0.762-1.566-2.589-2.609-5.473-3.115v-1.525
				c2.971,0,5.705-0.107,8.207-0.321c2.502-0.209,4.771-0.954,6.811-2.229l1.78,1.533v11.707c1.021-1.698,2.056-3.224,3.115-4.582
				c1.062-1.359,2.229-2.627,3.501-3.819v-1.524l7.893-3.82l2.29,1.021c0,6.279,0.933,10.811,2.796,13.612
				c1.869,2.799,4.16,4.199,6.877,4.199c1.948,0,3.538-0.505,4.772-1.523c1.227-1.02,2.179-2.122,2.862-3.307L426.933,1067.514z"/>
			<path d="M481.914,954.511c-1.446,1.691-2.527,3.281-3.248,4.773c-0.722,1.482-1.271,3.182-1.657,5.086
				c-0.381,1.905-0.593,4.217-0.634,6.935c-0.046,2.719-0.063,6.106-0.063,10.184v116.06c0,1.523,0.253,2.758,0.763,3.694
				c0.257,0.589,0.762,0.886,1.524,0.886c0.597,0,1.359-0.164,2.295-0.505l0.506,1.525l-14.251,5.468l-1.02-0.506v-14.126
				c-1.78,3.563-4.071,6.554-6.872,8.973c-2.796,2.419-6.45,4.31-10.945,5.659c-3.31,0-6.276-0.696-8.906-2.096
				c-2.631-1.4-4.88-3.29-6.748-5.658c-1.864-2.378-3.285-5.098-4.259-8.154c-0.978-3.049-1.467-6.189-1.467-9.412
				c0-3.901,0.746-7.547,2.229-10.944c1.482-3.396,3.454-6.429,5.915-9.097c2.461-2.676,5.327-4.922,8.592-6.745
				c3.265-1.83,6.683-3.072,10.245-3.761c2.034,0,4.093,0.489,6.172,1.467c2.076,0.977,4.089,2.353,6.044,4.133v-90.102
				c0-1.102-0.082-2.161-0.256-3.182c-0.166-1.01-0.506-1.921-1.016-2.732c-0.509-0.804-1.255-1.459-2.229-1.973
				c-0.974-0.505-2.27-0.763-3.882-0.763v-1.524c1.864,0,3.882-0.082,6.049-0.256c2.161-0.174,4.259-0.449,6.297-0.829
				c2.037-0.381,3.923-0.87,5.662-1.467c1.736-0.588,3.12-1.267,4.139-2.029L481.914,954.511z M466.13,1082.021
				c0-3.049-0.596-5.85-1.78-8.401c-1.189-2.544-2.673-4.723-4.454-6.553c-1.785-1.823-3.778-3.265-5.981-4.326
				c-2.208-1.06-4.329-1.674-6.363-1.848c-4.072,1.194-7.171,3.082-9.292,5.669c-2.121,2.584-3.182,6.387-3.182,11.392
				c0,2.966,0.448,5.833,1.339,8.591c0.89,2.751,2.162,5.17,3.814,7.251c1.657,2.079,3.695,3.735,6.11,4.962
				c2.42,1.235,5.199,1.848,8.335,1.848c1.869-0.937,3.46-2.12,4.772-3.563c1.313-1.441,2.42-2.991,3.311-4.647
				c0.891-1.658,1.591-3.373,2.1-5.154C465.368,1085.46,465.791,1083.72,466.13,1082.021z"/>
			<path d="M537.905,1077.953c0,3.985-0.787,7.655-2.357,11.002c-1.57,3.355-3.624,6.363-6.172,9.04
				c-2.544,2.668-5.473,4.921-8.778,6.743c-3.311,1.823-6.703,3.115-10.183,3.878c-3.31,0-6.362-0.696-9.164-2.096
				c-2.8-1.4-5.22-3.265-7.253-5.602c-2.034-2.327-3.625-5.004-4.772-8.012c-1.147-3.016-1.719-6.131-1.719-9.354
				c0-3.903,0.745-7.598,2.228-11.078c1.483-3.479,3.48-6.553,5.982-9.221c2.502-2.676,5.386-4.922,8.649-6.745
				c3.269-1.83,6.642-3.072,10.121-3.761c2.63,0,5.344,0.638,8.144,1.913c2.801,1.269,5.324,3.033,7.573,5.278
				c2.245,2.254,4.089,4.904,5.534,7.953C537.181,1070.952,537.905,1074.308,537.905,1077.953z M529.762,1083.554
				c0-3.223-0.685-6.197-2.039-8.914c-1.359-2.71-3.099-5.063-5.22-7.061c-2.12-1.997-4.454-3.562-7.001-4.706
				c-2.544-1.151-5.005-1.807-7.378-1.98c-4.247,1.276-7.382,3.207-9.417,5.792c-2.037,2.594-3.057,6.43-3.057,11.517
				c0,2.975,0.51,5.842,1.528,8.593c1.02,2.758,2.44,5.202,4.263,7.314c1.822,2.131,4.01,3.82,6.555,5.096
				c2.543,1.268,5.385,1.906,8.525,1.906c4.751-1.019,8.144-2.925,10.182-5.726C528.742,1092.585,529.762,1088.642,529.762,1083.554
				z"/>
			<path d="M675.343,1055.3c-1.359,1.103-2.402,2.08-3.123,2.926s-1.269,1.973-1.649,3.371c-0.382,1.4-0.621,3.248-0.704,5.536
				c-0.083,2.294-0.124,5.394-0.124,9.287v32.196h-2.038c-0.763-3.812-2.246-6.189-4.458-7.126
				c-1.268-0.505-2.709-0.761-4.324-0.761c-1.186,0-2.503,0.133-3.944,0.381c-3.397,0.762-7.316,1.931-11.773,3.505
				c-4.448,1.564-9.271,2.898-14.44,4.001c-7.217,0-13.87-1.375-19.984-4.134c-6.106-2.751-11.387-6.504-15.844-11.259
				c-4.453-4.748-7.953-10.374-10.498-16.862c-2.543-6.495-3.818-13.513-3.818-21.062c0-6.959,1.102-13.553,3.31-19.793
				c2.208-6.23,5.298-11.856,9.292-16.859c3.984-5.004,8.785-9.313,14.377-12.918c5.601-3.603,11.798-6.254,18.583-7.953
				c2.967,1.103,6.148,2.097,9.545,2.991c3.39,0.887,6.827,1.508,10.307,1.847c1.865,0.25,3.778,0.383,5.726,0.383
				c1.533,0,3.058-0.084,4.582-0.258c3.396-0.258,6.661-1.062,9.801-2.419l0.763,1.275c-1.955,1.699-3.836,3.24-5.659,4.641
				c-1.83,1.399-3.736,2.608-5.733,3.629c-1.988,1.019-4.134,1.806-6.421,2.353c-2.295,0.556-4.839,0.829-7.639,0.829
				c-4.325,0-8.318-0.614-11.964-1.848c-3.646-1.227-7.631-2.818-11.964-4.773c-4.491,1.533-8.377,3.695-11.641,6.496
				c-3.265,2.801-5.966,6.039-8.08,9.735c-2.121,3.688-3.695,7.738-4.711,12.154c-1.019,4.407-1.527,9.03-1.527,13.87
				c0,7.208,1.188,13.91,3.562,20.107c2.378,6.189,5.711,11.583,9.994,16.165c4.284,4.572,9.354,8.16,15.204,10.745
				c5.856,2.594,12.303,3.887,19.346,3.887c4.921-0.938,8.824-1.956,11.707-3.058c2.883-1.103,5.029-2.42,6.43-3.943
				c1.399-1.525,2.286-3.413,2.667-5.658c0.39-2.255,0.581-4.988,0.581-8.213v-2.294c0-4.151-0.299-7.398-0.896-9.735
				c-0.597-2.327-1.657-4.067-3.182-5.211c-1.524-1.152-3.547-1.89-6.048-2.229c-2.502-0.339-5.659-0.638-9.479-0.896l0.257-2.028
				h14.764c3.05,0,5.593-0.025,7.632-0.066c2.037-0.041,3.794-0.149,5.285-0.323c1.483-0.166,2.751-0.398,3.812-0.697
				c1.061-0.296,2.188-0.703,3.372-1.209L675.343,1055.3z"/>
			<path d="M732.353,1103.148l-14.258,5.468l-1.02-0.506v-12.088c-1.947,2.462-4.068,4.748-6.363,6.868
				c-2.286,2.121-4.921,4.036-7.888,5.726c-2.717,0-5.327-0.381-7.829-1.144s-4.706-1.888-6.611-3.372
				c-1.914-1.482-3.464-3.305-4.648-5.468c-1.193-2.163-1.781-4.648-1.781-7.448c0-3.141,0.68-5.891,2.039-8.269
				c1.35-2.378,3.156-4.351,5.41-5.917c2.245-1.574,4.813-2.742,7.696-3.503c2.884-0.763,5.891-1.145,9.031-1.145l10.695,2.038
				c-0.679-3.736-1.996-6.917-3.952-9.545c-1.946-2.634-4.705-4.539-8.268-5.732c-1.441,0-2.925,0.149-4.457,0.448
				c-1.525,0.297-2.926,0.827-4.193,1.59c-0.771,0.937-1.151,1.913-1.151,2.924l0.133,0.133c0,1.021,0.248,2.122,0.762,3.307
				l-6.62,5.095h-1.019c-0.505-1.533-0.763-3.223-0.763-5.095c0-2.544,0.639-4.624,1.906-6.23c1.275-1.615,2.975-2.95,5.095-4.011
				c2.122-1.06,4.582-1.914,7.383-2.544c2.8-0.638,5.725-1.291,8.782-1.979c4.582,1.275,8.161,3.464,10.755,6.554
				c2.584,3.099,4.598,6.687,6.039,10.755v27.49c0,1.523,0.257,2.758,0.763,3.694c0.257,0.589,0.762,0.886,1.532,0.886
				c0.588,0,1.351-0.164,2.287-0.505L732.353,1103.148z M717.075,1089.146v-8.649l-16.031-3.059c-3.82,0-6.638,0.681-8.46,2.038
				c-1.831,1.36-2.742,3.563-2.742,6.621c0,2.46,0.53,4.582,1.591,6.362c1.061,1.781,2.42,3.239,4.076,4.392
				c1.649,1.144,3.479,2.013,5.469,2.61c1.996,0.587,3.969,0.969,5.924,1.143c2.029-1.533,3.919-3.264,5.658-5.22
				C714.3,1093.438,715.808,1091.358,717.075,1089.146z"/>
			<path d="M788.345,1067.514c-3.23,6.279-7.978,9.42-14.259,9.42c-3.736,0-6.827-1.292-9.287-3.886
				c-2.461-2.585-4.201-6.123-5.221-10.622c-2.286,2.544-4.092,5.519-5.41,8.907c-1.317,3.396-1.972,7.207-1.972,11.45v14.765
				c0,1.523,0.258,2.758,0.763,3.694c0.257,0.589,0.771,0.886,1.532,0.886c0.589,0,1.351-0.164,2.287-0.505l0.514,1.525
				l-14.259,5.468l-1.02-0.506v-42.636c0-2.112-0.381-3.96-1.144-5.534c-0.762-1.566-2.584-2.609-5.468-3.115v-1.525
				c2.967,0,5.7-0.107,8.202-0.321c2.503-0.209,4.772-0.954,6.811-2.229l1.781,1.533v11.707c1.02-1.698,2.055-3.224,3.124-4.582
				c1.06-1.359,2.22-2.627,3.495-3.819v-1.524l7.889-3.82l2.295,1.021c0,6.279,0.928,10.811,2.801,13.612
				c1.863,2.799,4.15,4.199,6.868,4.199c1.955,0,3.546-0.505,4.772-1.523c1.226-1.02,2.188-2.122,2.866-3.307L788.345,1067.514z"/>
			<path d="M835.173,1121.6c0,5.517-1.698,10.249-5.087,14.191c-3.396,3.944-7.722,7.276-12.983,9.993l-1.019-2.038
				c3.985-2.212,7.018-4.73,9.098-7.573c2.079-2.842,3.123-6.172,3.123-9.991c0-2.627-0.447-5.153-1.342-7.572
				c-0.887-2.421-2.271-4.559-4.135-6.422c-1.864-1.872-4.259-3.331-7.191-4.391c-2.925-1.069-6.421-1.592-10.497-1.592h-15.271
				v-2.038c2.461-8.227,6.38-15.758,11.773-22.594c5.386-6.827,11.467-12.866,18.261-18.129h-31.559l-0.514-2.037l5.344-10.689
				l1.276,0.508c-0.34,1.1-0.514,1.954-0.514,2.543c0,0.34,0.083,0.596,0.257,0.762c0.257,0.514,0.846,0.77,1.781,0.77h35.635
				l1.02,2.031c-3.397,2.469-6.795,5.22-10.183,8.276c-3.397,3.049-6.579,6.322-9.545,9.802c-2.975,3.48-5.643,7.101-8.021,10.879
				c-2.369,3.777-4.241,7.614-5.601,11.516h10.183c4.839,0,8.891,0.696,12.155,2.097c3.264,1.4,5.915,3.207,7.953,5.411
				c2.038,2.202,3.48,4.746,4.325,7.639C834.751,1115.833,835.173,1118.717,835.173,1121.6z"/>
			<path d="M885.563,1077.953c0,3.985-0.787,7.655-2.354,11.002c-1.573,3.355-3.628,6.363-6.172,9.04
				c-2.543,2.668-5.477,4.921-8.781,6.743c-3.307,1.823-6.704,3.115-10.183,3.878c-3.307,0-6.363-0.696-9.164-2.096
				c-2.801-1.4-5.212-3.265-7.249-5.602c-2.039-2.327-3.63-5.004-4.773-8.012c-1.143-3.016-1.715-6.131-1.715-9.354
				c0-3.903,0.737-7.598,2.221-11.078c1.482-3.479,3.479-6.553,5.982-9.221c2.502-2.676,5.386-4.922,8.658-6.745
				c3.264-1.83,6.636-3.072,10.115-3.761c2.627,0,5.345,0.638,8.145,1.913c2.801,1.269,5.319,3.033,7.573,5.278
				c2.245,2.254,4.093,4.904,5.534,7.953C884.843,1070.952,885.563,1074.308,885.563,1077.953z M877.42,1083.554
				c0-3.223-0.68-6.197-2.038-8.914c-1.359-2.71-3.1-5.063-5.212-7.061c-2.129-1.997-4.457-3.562-7.001-4.706
				c-2.544-1.151-5.013-1.807-7.382-1.98c-4.242,1.276-7.383,3.207-9.421,5.792c-2.038,2.594-3.049,6.43-3.049,11.517
				c0,2.975,0.505,5.842,1.525,8.593c1.018,2.758,2.436,5.202,4.258,7.314c1.831,2.131,4.01,3.82,6.554,5.096
				c2.552,1.268,5.394,1.906,8.533,1.906c4.748-1.019,8.145-2.925,10.175-5.726C876.4,1092.585,877.42,1088.642,877.42,1083.554z"/>
			<path d="M949.194,1103.148l-14.26,5.468l-1.011-0.506v-27.357c0-2.552-0.256-4.922-0.771-7.134
				c-0.505-2.204-1.357-4.134-2.543-5.782c-1.185-1.658-2.733-3.016-4.64-4.076c-1.913-1.062-4.268-1.674-7.067-1.848
				c-1.615,1.019-3.057,2.337-4.324,3.952c-1.275,1.607-2.403,3.371-3.373,5.276c-0.977,1.906-1.78,3.903-2.418,5.982
				c-0.639,2.08-1.087,4.134-1.335,6.172v21.891l-9.163,3.43l-1.02-0.506v-42.636c0-2.204-0.472-4.067-1.4-5.593
				c-0.937-1.533-3.016-2.551-6.238-3.057v-1.525c3.223,0,6.197-0.107,8.907-0.321c2.717-0.209,5.095-0.954,7.134-2.229l1.78,1.533
				v14.507c2.204-4.242,4.814-7.746,7.82-10.497c3.018-2.76,6.174-4.607,9.488-5.543c6.528,0.515,11.384,2.801,14.565,6.878
				c3.182,4.067,4.771,9.246,4.771,15.525v22.396c0,1.523,0.258,2.758,0.763,3.694c0.258,0.589,0.771,0.886,1.533,0.886
				c0.587,0,1.35-0.164,2.286-0.505L949.194,1103.148z"/>
			<path d="M1086.116,1107.093l-0.506,1.523c-2.543-0.763-4.922-1.35-7.125-1.781c-2.213-0.423-4.581-0.63-7.125-0.63h-3.571
				c-2.544,0-4.962,0.207-7.249,0.63c-2.295,0.432-4.707,1.019-7.258,1.781l-0.506-1.523c2.626-1.269,4.598-2.503,5.915-3.688
				c1.318-1.192,2.104-2.634,2.354-4.333c0.082-0.423,0.133-0.886,0.133-1.391c0-1.359-0.217-2.934-0.639-4.715
				c-0.68-2.37-1.658-5.427-2.926-9.164l-4.075-11.706h-40.722l-3.819,11.706c-1.359,4.076-2.337,7.34-2.926,9.802
				c-0.422,1.615-0.639,3.057-0.639,4.325c0,0.597,0.043,1.193,0.125,1.781c0.34,1.616,1.21,2.934,2.61,3.943
				c1.4,1.019,3.454,2.171,6.172,3.439l-0.505,1.523c-2.544-0.763-4.797-1.35-6.744-1.781c-1.955-0.423-4.2-0.63-6.745-0.63h-3.057
				c-2.544,0-4.623,0.207-6.238,0.63c-1.607,0.432-3.688,1.019-6.23,1.781l-0.514-1.523c2.552-1.359,4.623-2.628,6.238-3.82
				c1.607-1.186,2.991-2.586,4.134-4.201c1.145-1.607,2.204-3.604,3.182-5.973c0.979-2.378,2.146-5.478,3.505-9.297l25.701-73.299
				c0.423-1.103,0.638-2.122,0.638-3.057c0-1.443-0.463-2.628-1.4-3.563c-1.616-1.524-4.241-3.05-7.887-4.582l0.505-1.524
				c2.544,0.763,5.046,1.376,7.506,1.848c2.462,0.464,4.973,0.696,7.516,0.696h3.049c2.552,0,4.963-0.232,7.258-0.696
				c2.287-0.472,4.706-1.085,7.25-1.848l0.514,1.524c-1.955,0.68-3.547,1.359-4.772,2.038c-1.234,0.679-2.163,1.426-2.801,2.229
				s-0.952,1.756-0.952,2.857c0,1.11,0.289,2.47,0.886,4.077l25.71,73.299c1.357,3.993,2.526,7.217,3.496,9.678
				c0.977,2.461,1.972,4.475,2.99,6.04c1.02,1.573,2.255,2.907,3.696,4.009C1081.709,1104.631,1083.655,1105.824,1086.116,1107.093z
				 M1051.251,1065.989l-18.584-53.2l-17.812,53.2H1051.251z"/>
		</g>
		<path d="M868.521,1044.339c2.686-0.19,14.168-22.353,14.168-22.353l-10.911-1.541l-0.646,0.414
			c0.149,0.704,0.282,1.748,0.406,3.131c0.115,1.385,0.091,2.577-0.075,3.589c-0.58,3.67-2.171,7.639-3.695,9.52
			c-0.745,0.869-4.797,6.105-4.797,6.105L868.521,1044.339z"/>
	</g>
	<g>
		<g>
			<path d="M598.447,653.55c-6.684,5.431-11.805,10.237-15.346,14.408c-3.551,4.176-6.264,9.706-8.141,16.595
				c-1.881,6.89-3.037,15.975-3.447,27.246c-0.422,11.272-0.625,26.525-0.625,45.723v158.468h-10.021
				c-3.757-18.787-11.068-30.478-21.922-35.076c-6.264-2.502-13.369-3.758-21.298-3.758c-5.853,0-12.319,0.626-19.416,1.877
				c-16.707,3.762-36.017,9.504-57.938,17.226c-21.923,7.734-45.623,14.3-71.092,19.731c-35.493,0-68.27-6.791-98.333-20.353
				c-30.067-13.567-56.058-32.048-77.98-55.438c-21.923-23.381-39.148-51.045-51.676-82.988s-18.791-66.494-18.791-103.661
				c0-34.234,5.419-66.706,16.285-97.399c10.854-30.69,26.095-58.349,45.723-82.991c19.623-24.635,43.22-45.822,70.78-63.575
				c27.557-17.742,58.034-30.788,91.444-39.148c14.614,5.433,30.27,10.335,46.978,14.721c16.694,4.382,33.608,7.417,50.734,9.081
				c9.181,1.253,18.575,1.881,28.186,1.881c7.516,0,15.034-0.413,22.549-1.254c16.695-1.253,66.713-22.186,82.164-28.87l3.758,6.264
				c-9.61,8.358-36.152,28.713-57.566,39.831c-10.049,5.218-22.623,12.841-32.428,17.852c-9.813,5.01-20.356,8.875-31.629,11.586
				c-11.275,2.722-23.803,4.072-37.582,4.072c-21.297,0-40.929-3.024-58.875-9.082c-17.962-6.049-37.582-13.878-58.878-23.489
				c-22.139,7.517-41.24,18.166-57.313,31.944c-16.078,13.78-29.339,29.752-39.769,47.915
				c-10.448,18.166-18.166,38.11-23.179,59.817c-5.009,21.718-7.515,44.472-7.515,68.275c0,35.494,5.842,68.486,17.536,98.96
				c11.686,30.488,28.078,57.001,49.172,79.545c21.078,22.553,46.033,40.196,74.85,52.931
				c28.808,12.738,60.536,19.102,95.202,19.102c24.213-4.59,43.422-9.603,57.623-15.029c14.192-5.427,24.743-11.901,31.632-19.42
				c6.891-7.515,11.272-16.803,13.154-27.872c1.881-11.061,2.816-24.524,2.816-40.398v-11.276c0-20.452-1.467-36.422-4.383-47.914
				c-2.926-11.482-8.145-20.041-15.659-25.68s-17.44-9.287-29.753-10.961c-12.319-1.666-27.871-3.133-46.662-4.388l1.252-10.017
				h72.656c15.034,0,27.561-0.1,37.582-0.314c10.021-0.208,18.684-0.725,25.996-1.566c7.299-0.832,13.563-1.98,18.79-3.447
				c5.216-1.458,10.745-3.446,16.595-5.948L598.447,653.55z"/>
		</g>
		<g>
			<path d="M605.308,647.286c5.85,2.502,11.384,4.49,16.595,5.948c5.229,1.467,11.493,2.615,18.791,3.447
				c7.316,0.842,15.975,1.358,26,1.566c10.017,0.215,22.544,0.314,37.581,0.314h72.653l1.251,10.017
				c-18.79,1.255-34.342,2.722-46.662,4.388c-12.313,1.674-22.238,5.322-29.752,10.961c-7.516,5.639-12.734,14.197-15.659,25.68
				c-2.916,11.492-4.384,27.462-4.384,47.914v11.276c0,15.874,0.937,29.338,2.817,40.398c1.881,11.069,6.264,20.357,13.157,27.872
				c6.885,7.519,17.44,13.993,31.633,19.42c14.201,5.427,33.406,10.439,57.624,15.029c34.666,0,66.39-6.363,95.206-19.102
				c28.808-12.734,53.763-30.378,74.849-52.931c21.085-22.544,37.482-49.057,49.163-79.545c11.7-30.474,17.541-63.466,17.541-98.96
				c0-23.803-2.511-46.557-7.515-68.275c-5.013-21.707-12.733-41.651-23.174-59.817c-10.439-18.163-23.696-34.135-39.778-47.915
				c-16.073-13.778-35.17-24.428-57.309-31.944c-21.301,9.611-40.92,17.44-58.883,23.489c-17.945,6.058-37.573,9.082-58.875,9.082
				c-13.778,0-26.306-1.35-37.581-4.072c-11.269-2.711-20.871-3.666-31.626-7.344c-10.422-3.563-32.833-14.42-42.585-20.175
				c-19.446-11.473-56.414-32.252-64.377-41.75l3.754-6.264c15.451,6.685,82.438,27.617,99.133,28.87
				c7.515,0.841,15.037,1.254,22.553,1.254c9.61,0,19.005-0.628,28.186-1.881c17.126-1.664,34.036-4.698,50.73-9.081
				c16.712-4.386,32.362-9.288,46.978-14.721c33.414,8.36,63.888,21.406,91.444,39.148c27.565,17.753,51.161,38.94,70.78,63.575
				c19.636,24.642,34.873,52.3,45.727,82.991c10.861,30.693,16.279,63.165,16.279,97.399c0,37.167-6.263,71.718-18.79,103.661
				s-29.752,59.607-51.676,82.988c-21.914,23.39-47.912,41.87-77.98,55.438c-30.058,13.562-62.835,20.353-98.328,20.353
				c-25.469-5.432-49.174-11.997-71.096-19.731c-21.923-7.722-41.228-13.464-57.938-17.226c-7.093-1.251-13.563-1.877-19.412-1.877
				c-7.93,0-15.038,1.256-21.302,3.758c-10.854,4.599-18.161,16.289-21.923,35.076h-10.017V757.521
				c0-19.197-0.208-34.45-0.63-45.723c-0.406-11.271-1.566-20.356-3.447-27.246c-1.872-6.889-4.59-12.419-8.136-16.595
				c-3.546-4.171-8.666-8.978-15.353-14.408L605.308,647.286z"/>
		</g>
		<g>
			<path d="M685.053,389.941l-91.441-261.815L505.92,389.941l-10.021,30.063l-18.791,57.625
				c-6.686,20.042-11.492,36.122-14.408,48.229c-2.092,7.938-3.132,15.032-3.132,21.295c0,2.927,0.207,5.854,0.63,8.77
				c1.661,7.938,5.948,14.406,12.838,19.417c6.89,5.01,17.01,10.648,30.378,16.912l-2.506,7.515
				c-12.523-3.758-23.593-6.685-33.195-8.769c-9.61-2.094-20.668-3.131-33.195-3.131h-15.033c-12.527,0-22.763,1.037-30.692,3.131
				c-7.938,2.084-18.161,5.011-30.688,8.769l-2.506-7.515c12.522-6.676,22.751-12.939,30.688-18.791
				c7.929-5.844,14.722-12.732,20.356-20.67c5.639-7.927,10.854-17.742,15.659-29.439c4.797-11.684,10.542-26.933,17.225-45.723
				l126.524-360.778c2.083-5.423,3.131-10.433,3.131-15.033c0-7.095-2.299-12.938-6.889-17.538
				c-7.938-7.515-20.887-15.032-38.832-22.549l2.501-7.517c12.527,3.759,24.839,6.794,36.956,9.083
				c12.105,2.301,24.43,3.444,36.955,3.444h15.028c12.527,0,24.434-1.143,35.71-3.444c11.268-2.289,23.174-5.324,35.701-9.083
				l2.502,7.517c-9.61,3.347-17.44,6.684-23.488,10.021c-6.058,3.347-10.647,6.999-13.779,10.961
				c-3.132,3.975-4.697,8.672-4.697,14.093c0,5.433,1.458,12.117,4.383,20.044l126.524,360.778
				c6.678,19.633,12.419,35.496,17.225,47.604c4.797,12.115,9.71,22.028,14.723,29.75c5.004,7.732,11.053,14.309,18.162,19.731
				c7.092,5.431,16.693,11.274,28.807,17.538l-2.502,7.515c-12.527-3.758-24.226-6.685-35.071-8.769
				c-10.87-2.094-22.552-3.131-35.079-3.131h-17.54c-12.527,0-24.425,1.037-35.702,3.131c-11.275,2.084-23.173,5.011-35.7,8.769
				l-2.502-7.515c12.934-6.264,22.644-12.312,29.122-18.166c6.471-5.84,10.332-12.937,11.591-21.295
				c0.406-2.083,0.622-4.385,0.622-6.889c0-6.676-1.044-14.406-3.133-23.176c-3.347-11.685-8.144-26.719-14.407-45.098
				l-20.042-57.625L685.053,389.941z M685.053,389.941"/>
		</g>
	</g>
</g>
</svg>
